<?xml version="1.0" standalone="no"?>
<!DOCTYPE svg PUBLIC "-//W3C//DTD SVG 20010904//EN"
 "http://www.w3.org/TR/2001/REC-SVG-20010904/DTD/svg10.dtd">
<svg version="1.0" xmlns="http://www.w3.org/2000/svg"
 width="871.000000pt" height="871.000000pt" viewBox="0 0 871.000000 871.000000"
 preserveAspectRatio="xMidYMid meet">
<metadata>
Created by potrace 1.11, written by Peter Selinger 2001-2013
</metadata>
<g transform="translate(0.000000,871.000000) scale(0.100000,-0.100000)"
fill="#000000" stroke="none">
<path d="M897 8692 l-898 -2 4 -2048 c2 -1126 6 -2058 9 -2072 3 -14 9 -61 13
-105 4 -44 8 -87 10 -95 1 -8 6 -42 10 -75 14 -119 67 -393 106 -545 22 -85
41 -159 43 -165 20 -78 128 -392 165 -480 97 -228 209 -457 295 -603 17 -29
36 -61 41 -70 262 -452 666 -924 1092 -1279 586 -488 1252 -824 1998 -1011
132 -33 403 -84 520 -97 28 -3 61 -8 75 -10 14 -2 61 -7 105 -11 44 -4 94 -9
110 -12 17 -3 945 -7 2063 -9 l2032 -4 0 2533 0 2533 -33 -60 c-75 -138 -112
-202 -134 -237 -13 -21 -23 -40 -23 -42 0 -2 -16 -33 -36 -68 -20 -34 -50 -88
-67 -118 -16 -30 -116 -208 -220 -395 -105 -187 -231 -414 -281 -505 l-91
-165 0 -1295 0 -1295 -1500 0 c-1331 0 -1575 3 -1715 20 -19 2 -60 7 -90 10
-30 3 -62 8 -70 10 -8 2 -37 7 -65 10 -40 5 -207 38 -307 60 -262 58 -621 191
-898 331 -189 97 -213 110 -364 206 -524 334 -984 803 -1313 1343 -148 243
-290 547 -382 822 -43 130 -101 330 -115 403 -3 14 -8 36 -10 50 -31 142 -57
309 -71 455 -3 39 -9 88 -11 110 -3 22 -7 726 -8 1565 l-3 1525 1301 -1 1301
-1 60 32 c33 18 76 41 95 52 19 11 199 111 400 223 201 112 387 216 413 232
26 15 50 28 52 28 3 0 39 20 81 45 41 25 78 45 81 45 2 0 35 17 71 39 69 39
119 67 232 129 69 37 108 62 100 63 -19 2 -3453 3 -4173 1z"/>
<path d="M8630 8665 c-30 -18 -71 -42 -90 -52 -52 -28 -139 -76 -420 -233
-344 -192 -336 -188 -410 -228 -36 -19 -94 -52 -130 -72 -36 -21 -186 -105
-335 -187 -266 -148 -330 -184 -410 -230 -22 -12 -47 -26 -55 -29 -8 -4 -44
-24 -80 -44 -36 -21 -87 -50 -115 -65 -342 -190 -531 -295 -745 -415 -140 -78
-277 -155 -305 -170 -27 -15 -153 -85 -280 -156 -126 -70 -248 -137 -270 -149
-22 -12 -58 -33 -80 -45 -22 -13 -58 -33 -80 -45 -23 -12 -144 -80 -270 -150
-127 -71 -250 -139 -275 -153 -25 -14 -79 -44 -120 -67 -41 -23 -106 -59 -145
-80 -38 -21 -74 -41 -80 -45 -5 -4 -37 -22 -70 -40 -33 -18 -80 -44 -105 -58
-25 -13 -70 -38 -100 -54 -30 -17 -59 -33 -65 -38 -5 -4 -40 -23 -78 -44 -177
-96 -204 -110 -227 -126 -14 -9 -43 -26 -65 -37 -76 -39 -125 -67 -122 -69 1
-1 420 -142 931 -313 511 -171 931 -312 933 -314 2 -2 140 -414 308 -916 167
-501 308 -919 313 -927 7 -13 21 6 63 82 30 55 62 112 71 129 9 16 20 37 24
45 5 8 33 60 64 115 31 55 74 132 95 170 32 59 271 490 353 635 13 25 37 68
52 95 15 28 36 66 47 85 11 19 33 60 50 90 50 89 418 751 445 800 14 25 42 77
63 115 21 39 66 120 100 180 67 118 108 192 163 295 19 36 43 77 54 92 10 14
18 28 18 31 0 3 111 205 246 448 308 554 278 501 363 654 39 72 76 137 81 145
6 8 16 26 22 40 7 14 22 41 34 60 11 19 39 69 61 110 22 41 94 172 160 290 66
118 131 235 145 260 13 25 95 172 181 327 86 155 157 284 157 287 0 11 -14 5
-70 -29z"/>
</g>
</svg>
