 <svg width="10" height="16" viewBox="0 0 10 16" fill="none" xmlns="http://www.w3.org/2000/svg">
                        <path d="M5 0C2.238 0 0 2.229 0 4.99C0 9.764 5 15.99 5 15.99C5 15.99 10 9.763 10 4.99C10 2.23 7.762 0 5 0ZM5 7.751C4.28392 7.751 3.59716 7.46654 3.09081 6.96019C2.58446 6.45384 2.3 5.76708 2.3 5.051C2.3 4.33492 2.58446 3.64816 3.09081 3.14181C3.59716 2.63546 4.28392 2.351 5 2.351C5.71608 2.351 6.40284 2.63546 6.90919 3.14181C7.41554 3.64816 7.7 4.33492 7.7 5.051C7.7 5.76708 7.41554 6.45384 6.90919 6.96019C6.40284 7.46654 5.71608 7.751 5 7.751Z" fill="#27AE60"/>
                        </svg>